<svg xmlns="http://www.w3.org/2000/svg" version="1.1" style="height: 300px;">
        <defs
                id="defs4">
            <linearGradient
                    id="reds">
                <stop
                        style="stop-color:#f00;stop-opacity:1;"
                        offset="0"
                        id="stop3897" />
                <stop
                        id="stop3903"
                        offset="0.82150733"
                        style="stop-color:#a90329;stop-opacity:1;" />
                <stop
                        style="stop-color:#6d0019;stop-opacity:1;"
                        offset="1"
                        id="stop3899" />
            </linearGradient>
                    <linearGradient
                    id="shadows">
                <stop
                        style="stop-color:#FF5151;stop-opacity:1;"
                        offset="0"
                        id="stop3828" />
                <stop
                        style="stop-color:#a90329;stop-opacity:0.19607843;"
                        offset="1"
                        id="stop3830" />
            <radialGradient
                    inkscape:collect="always"
                    xlink:href="#shadows"
                    id="radialGradient3832"
                    cx="70.069633"
                    cy="91.488838"
                    fx="70.069633"
                    fy="91.488838"
                    r="54.015625"
                    gradientTransform="matrix(0,2.2628573,-1.5478635,0,246.76845,-92.932851)"
                    gradientUnits="userSpaceOnUse" />
            <radialGradient
                    inkscape:collect="always"
                    xlink:href="#reds"
                    id="radialGradient3901"
                    cx="54.475197"
                    cy="852.6236"
                    fx="54.475197"
                    fy="852.6236"
                    r="74"
                    gradientTransform="matrix(-6.6371246e-8,3.7678949,-2.7529106,-4.8492355e-8,2401.6717,597.45009)"
                    gradientUnits="userSpaceOnUse" />

        </defs>
        <g
                id="layer1"
                transform="translate(0, -796.36218)">
            <path
                    style="fill:url(#radialGradient3901);fill-opacity:1;fill-rule:nonzero;stroke:#000000;stroke-width:1;stroke-miterlimit:4;stroke-opacity:1;stroke-dasharray:none;filter:url(#filter3913)"
                    d="m 127.9375,803.76843 c -15.25015,58.03985 -44.468492,95.37954 -67,144.84375 l 0.09375,0 C 57.461277,957.18621 55.5,966.58885 55.5,976.45593 c 0,40.04067 32.459357,72.49997 72.5,72.49997 40.04064,0 72.5,-32.4593 72.5,-72.49997 0,-9.86708 -1.96128,-19.26972 -5.53125,-27.84375 l 0.0937,0 C 171.11413,899.06946 140.73374,849.61996 127.9375,803.76843 z"
                    id="path2987"/>
            <path
                    style="fill:url(#radialGradient3832);fill-opacity:1;fill-rule:nonzero;stroke:none"
                    d="M 127.96875 12.9375 C 112.34322 68.13658 84.380129 104.94485 62.65625 152.46875 A 1.6479636 1.6479636 0 0 1 62.65625 152.5 A 1.6479636 1.6479636 0 0 1 62.5625 152.875 C 59.074529 161.25209 57.15625 170.44503 57.15625 180.09375 C 57.15625 187.88882 58.428408 195.3937 60.75 202.40625 C 62.355608 202.48318 63.969091 202.53125 65.59375 202.53125 C 120.59727 202.53125 165.1875 157.94102 165.1875 102.9375 C 165.1875 100.96391 165.14492 99.008704 165.03125 97.0625 C 150.19908 68.385303 136.24816 40.127828 127.96875 12.9375 z "
                    transform="translate(0,796.36218)"
                    id="path4379" />
        </g>
    </svg>